<svg xmlns="http://www.w3.org/2000/svg" width="2554" height="479" viewBox="0 0 2554 479" version="1.1"><path d="M 1143.315 117.749 C 1153.664 117.912, 1170.314 117.911, 1180.315 117.748 C 1190.317 117.585, 1181.850 117.452, 1161.500 117.453 C 1141.150 117.453, 1132.967 117.586, 1143.315 117.749 M 306.500 239.161 C 304.300 239.559, 276.723 239.911, 245.218 239.942 L 187.936 240 187.107 242.241 C 186.651 243.473, 186.665 245.833, 187.139 247.484 C 187.612 249.136, 188 255.102, 188 260.743 L 188 271 252.750 271.015 C 288.363 271.024, 318.080 271.399, 318.789 271.849 C 319.860 272.528, 336.452 334.079, 367.016 450.750 L 372.321 471 400.120 471 L 427.918 471 436.523 466.572 C 452.159 458.527, 462.071 449.005, 469.471 434.923 C 475.003 424.396, 476.102 418.708, 476.608 398 C 476.857 387.825, 477.176 376.720, 477.317 373.323 C 477.457 369.926, 477.219 367.365, 476.786 367.632 C 476.354 367.899, 476 368.965, 476 369.999 C 476 372.951, 471.099 385.951, 467.759 391.858 C 463.596 399.221, 454.165 409.048, 448.087 412.356 C 424.481 425.204, 397.409 407.733, 387.788 373.442 C 385.653 365.830, 385.546 363.537, 385.234 318.262 L 384.909 271.023 424.704 270.762 L 464.500 270.500 455.851 261.843 C 448.714 254.701, 445.566 252.380, 437.851 248.571 C 422.814 241.149, 421.698 241.037, 362.823 241.017 C 321.650 241.004, 311.081 240.740, 310.823 239.718 C 310.589 238.788, 309.405 238.635, 306.500 239.161 M 1944.417 291.500 C 1944.418 301.950, 1944.566 306.089, 1944.746 300.698 C 1944.926 295.307, 1944.925 286.757, 1944.744 281.698 C 1944.563 276.639, 1944.416 281.050, 1944.417 291.500 M 2213.409 294.500 C 2213.408 303.850, 2213.558 307.810, 2213.743 303.299 C 2213.928 298.789, 2213.929 291.139, 2213.745 286.299 C 2213.562 281.460, 2213.410 285.150, 2213.409 294.500" stroke="none" fill="#ffde5a" fill-rule="evenodd"/><path d="M 73.340 240.984 C 47.911 243.809, 25.134 261.099, 15.452 284.926 C 10.457 297.219, 10 302.650, 10 349.758 C 10 413.040, 11.019 422.336, 19.660 437.900 C 24.084 445.869, 37.117 459.103, 45.221 463.855 C 60.211 472.644, 70.597 474.418, 103.715 473.848 C 120.059 473.567, 124.201 473.213, 125.347 472 C 126.127 471.175, 128.458 463.975, 130.527 456 C 132.597 448.025, 134.450 441.050, 134.647 440.500 C 134.865 439.888, 131.611 439.456, 126.252 439.385 C 115.581 439.246, 100.571 435.483, 90.681 430.468 C 56.644 413.210, 39.121 374.547, 48.490 337.378 C 55.642 309.006, 75.336 287.848, 102.970 278.850 C 110.962 276.247, 114.517 275.674, 125 275.295 C 136.030 274.896, 138.676 275.142, 147.500 277.390 C 153 278.791, 161.377 281.891, 166.115 284.280 L 174.731 288.622 180.913 265.192 C 184.313 252.305, 186.811 241.478, 186.465 241.131 C 185.528 240.193, 81.670 240.059, 73.340 240.984" stroke="none" fill="#5de1e6" fill-rule="evenodd"/><path d="M 117.128 276.017 C 97.633 278.734, 77.368 290.100, 64.960 305.275 C 58.692 312.942, 50.806 328.974, 48.372 339 C 46.045 348.584, 46.035 365.785, 48.351 375.329 C 57.323 412.303, 90.411 439, 127.264 439 L 134.612 439 153.971 365.750 C 164.618 325.462, 173.368 291.647, 173.415 290.605 C 173.529 288.068, 159.266 280.857, 148.678 278.099 C 139.369 275.674, 125.947 274.788, 117.128 276.017 M 2134.469 345.500 C 2134.469 377.950, 2134.595 391.080, 2134.750 374.678 C 2134.904 358.277, 2134.904 331.727, 2134.749 315.678 C 2134.595 299.630, 2134.469 313.050, 2134.469 345.500" stroke="none" fill="#ffbd59" fill-rule="evenodd"/><path d="M 74.500 3.922 C 48.675 6.608, 25.977 23.328, 16.021 47 C 10.231 60.764, 10.591 52.105, 10.352 183.500 C 10.152 293.240, 10.271 303.854, 11.635 297.561 C 17.543 270.283, 36.360 250.670, 64.661 242.292 C 69.869 240.751, 76.817 240.545, 128.932 240.384 L 187.365 240.205 218.039 124.079 C 234.910 60.210, 248.970 7.697, 249.284 7.383 C 249.597 7.069, 250.259 8.317, 250.754 10.156 C 251.249 11.995, 265.094 64.426, 281.519 126.669 L 311.384 239.837 364.942 240.265 C 422.159 240.721, 421.215 240.643, 434 246.021 C 442.764 249.707, 452.415 256.555, 459.050 263.796 L 465.194 270.500 424.998 270.761 L 384.802 271.023 385.250 317.261 C 385.678 361.469, 385.798 363.873, 387.976 372 C 393.327 391.961, 403.712 406.325, 417.681 413.088 C 424.529 416.403, 435.753 416.857, 443 414.113 C 456.530 408.990, 469.014 393.392, 474.333 374.966 C 478.132 361.806, 478.285 354.181, 477.730 206.554 C 477.127 46.146, 477.787 59.243, 469.459 42.268 C 460.958 24.937, 444.903 11.819, 424.973 5.918 L 417.500 3.706 249.500 3.450 C 157.100 3.309, 78.350 3.522, 74.500 3.922 M 549.812 68.748 C 558.233 68.916, 571.733 68.915, 579.812 68.748 C 587.890 68.580, 581 68.443, 564.500 68.443 C 548 68.444, 541.390 68.581, 549.812 68.748 M 1649.487 68.748 L 1766.973 69.008 1767.257 102.754 L 1767.541 136.500 1767.521 102.500 L 1767.500 68.500 1649.750 68.494 L 1532 68.488 1649.487 68.748 M 1197.455 157 C 1197.455 178.725, 1197.587 187.612, 1197.749 176.750 C 1197.910 165.887, 1197.910 148.112, 1197.749 137.250 C 1197.587 126.387, 1197.455 135.275, 1197.455 157 M 1687.486 270.500 C 1687.486 344.750, 1687.605 375.273, 1687.750 338.328 C 1687.895 301.383, 1687.895 240.633, 1687.750 203.328 C 1687.605 166.023, 1687.486 196.250, 1687.486 270.500 M 1241.439 223 C 1241.439 238.125, 1241.578 244.313, 1241.748 236.750 C 1241.917 229.188, 1241.917 216.813, 1241.748 209.250 C 1241.578 201.688, 1241.439 207.875, 1241.439 223 M 1503.482 300 C 1503.482 357.475, 1503.602 380.987, 1503.750 352.250 C 1503.897 323.512, 1503.897 276.487, 1503.750 247.750 C 1503.602 219.012, 1503.482 242.525, 1503.482 300 M 1945.466 249.500 C 1945.466 279.200, 1945.594 291.206, 1945.749 276.179 C 1945.905 261.153, 1945.905 236.853, 1945.749 222.179 C 1945.593 207.506, 1945.466 219.800, 1945.466 249.500 M 1197.452 287 C 1197.452 307.075, 1197.585 315.288, 1197.749 305.250 C 1197.912 295.213, 1197.912 278.788, 1197.749 268.750 C 1197.585 258.713, 1197.452 266.925, 1197.452 287" stroke="none" fill="#5371ff" fill-rule="evenodd"/><path d="M 1027.995 195.743 L 1063.991 196.025 1064.252 300.762 L 1064.514 405.500 1064.507 300.500 L 1064.500 195.500 1028.250 195.481 L 992 195.462 1027.995 195.743 M 1102.250 195.743 C 1106.513 195.931, 1113.487 195.931, 1117.750 195.743 C 1122.013 195.556, 1118.525 195.402, 1110 195.402 C 1101.475 195.402, 1097.987 195.556, 1102.250 195.743 M 1208.750 195.747 C 1214.938 195.922, 1225.063 195.922, 1231.250 195.747 C 1237.438 195.571, 1232.375 195.428, 1220 195.428 C 1207.625 195.428, 1202.563 195.571, 1208.750 195.747 M 1449.315 195.749 C 1459.664 195.912, 1476.314 195.911, 1486.315 195.748 C 1496.317 195.585, 1487.850 195.452, 1467.500 195.453 C 1447.150 195.453, 1438.967 195.586, 1449.315 195.749 M 1826.991 195.743 L 1862.983 196.025 1863.255 249.762 L 1863.527 303.500 1863.513 249.500 L 1863.500 195.500 1827.250 195.481 L 1791 195.462 1826.991 195.743 M 1963.750 195.749 C 1973.787 195.912, 1990.213 195.912, 2000.250 195.749 C 2010.287 195.585, 2002.075 195.452, 1982 195.452 C 1961.925 195.452, 1953.713 195.585, 1963.750 195.749 M 2079.750 195.749 C 2089.787 195.912, 2106.213 195.912, 2116.250 195.749 C 2126.287 195.585, 2118.075 195.452, 2098 195.452 C 2077.925 195.452, 2069.713 195.585, 2079.750 195.749 M 335.250 240.749 C 348.863 240.906, 371.137 240.906, 384.750 240.749 C 398.363 240.592, 387.225 240.463, 360 240.463 C 332.775 240.463, 321.637 240.592, 335.250 240.749 M 2214.469 345.500 C 2214.469 378.500, 2214.596 391.855, 2214.750 375.178 C 2214.904 358.501, 2214.903 331.501, 2214.749 315.178 C 2214.595 298.855, 2214.469 312.500, 2214.469 345.500 M 2543.079 307.744 L 2543 309.987 2467.250 310.250 L 2391.500 310.513 2467.281 310.756 C 2533.117 310.968, 2543.137 310.807, 2543.626 309.533 C 2543.935 308.726, 2543.957 307.489, 2543.673 306.783 C 2543.390 306.077, 2543.122 306.510, 2543.079 307.744 M 373.852 472.250 C 375.427 473.821, 415.468 473.816, 421.500 472.244 C 424.585 471.439, 419.448 471.178, 399.050 471.100 C 377.889 471.020, 372.850 471.250, 373.852 472.250" stroke="none" fill="#f6cc62" fill-rule="evenodd"/><path d="M 534.247 236.675 L 534.500 404.500 592 404.463 C 647.548 404.427, 649.941 404.348, 662.500 402.118 C 702.818 394.961, 737.439 375.028, 763.449 344 C 788.278 314.380, 801 277.960, 801 236.500 C 801 191.483, 785.974 152.728, 756.762 122.398 C 730.475 95.107, 702.177 79.276, 666.470 71.887 C 655.912 69.702, 653.221 69.603, 594.747 69.234 L 533.994 68.850 534.247 236.675 M 1531 102.500 L 1531 136 1571 136 L 1611 136 1611 270.500 L 1611 405 1649 405 L 1687 405 1687 270.500 L 1687 136 1727 136 L 1767 136 1767 102.500 L 1767 69 1649 69 L 1531 69 1531 102.500 M 1125 157 L 1125 196 1109.984 196 L 1094.968 196 1095.234 223.250 L 1095.500 250.500 1110.250 250.777 L 1125 251.053 1125.009 290.277 C 1125.020 341.572, 1126.176 354.379, 1132.205 370 C 1141.893 395.101, 1160.583 408.158, 1190.274 410.567 C 1200.061 411.361, 1215.642 409.781, 1226.773 406.865 C 1234.813 404.760, 1249 398.687, 1249 397.351 C 1249 396.922, 1245.110 383.893, 1240.355 368.397 L 1231.710 340.222 1225.605 343.110 C 1214.263 348.476, 1205.351 346.488, 1201.066 337.636 C 1197.626 330.529, 1197.042 323.042, 1197.020 285.750 L 1197 251 1219 251 L 1241 251 1241 223.500 L 1241 196 1219 196 L 1197 196 1197 157 L 1197 118 1161 118 L 1125 118 1125 157 M 611 236.494 L 611 336.264 626.750 335.744 C 639.902 335.309, 643.985 334.783, 651.500 332.553 C 695.226 319.578, 722.592 275.672, 717.908 226.006 C 715.662 202.197, 708.254 184.549, 693.233 167.230 C 676.814 148.297, 654.302 138.376, 625.250 137.268 L 611 136.724 611 236.494 M 904.342 191.412 C 878.535 196.339, 857.852 209.728, 841.151 232.320 C 825.608 253.345, 818.056 283.210, 820.904 312.383 C 822.947 333.300, 828.119 348.706, 838.393 364.467 C 856.027 391.520, 881.176 406.863, 913.121 410.056 C 942.305 412.974, 968.468 404.307, 988.250 385.170 L 993 380.575 993 392.788 L 993 405 1028.500 405 L 1064 405 1064 300.500 L 1064 196 1028 196 L 992 196 992 205.628 L 992 215.256 988.750 212.589 C 977.066 202.999, 963.171 195.997, 948.755 192.433 C 939.953 190.257, 913.567 189.650, 904.342 191.412 M 1342.894 191.489 C 1316.033 196.591, 1293.173 212.324, 1277.350 236.600 C 1267.993 250.954, 1263.244 264.050, 1260.389 283.369 C 1256.662 308.595, 1261.963 338.390, 1273.776 358.616 C 1291.894 389.639, 1317.758 406.621, 1352.121 410.056 C 1381.305 412.974, 1407.468 404.307, 1427.250 385.170 L 1432 380.575 1432 392.788 L 1432 405 1467.500 405 L 1503 405 1503 300.500 L 1503 196 1467 196 L 1431 196 1431 205.628 L 1431 215.256 1427.750 212.589 C 1416.066 202.999, 1402.171 195.997, 1387.755 192.433 C 1378.725 190.201, 1352.573 189.650, 1342.894 191.489 M 2182.075 191.087 C 2167.549 193.937, 2153.309 201.467, 2140.765 212.932 C 2137.715 215.719, 2134.945 218, 2134.610 218 C 2134.274 218, 2134 213.050, 2134 207 L 2134 196 2097.995 196 L 2061.991 196 2062.245 300.250 L 2062.500 404.500 2098.215 404.763 L 2133.929 405.025 2134.215 341.740 L 2134.500 278.455 2137.714 271.977 C 2143.030 261.262, 2153.751 251.700, 2164.832 247.792 C 2172.317 245.151, 2185.231 245.619, 2192.306 248.786 C 2202.308 253.263, 2211.620 266.045, 2213.906 278.434 C 2214.620 282.310, 2215 305.286, 2215 344.696 L 2215 405.025 2250.750 404.763 L 2286.500 404.500 2286.500 330.500 C 2286.500 247.182, 2286.592 248.368, 2278.966 233.213 C 2269.926 215.248, 2255.673 203.878, 2232.432 196.091 C 2216.100 190.620, 2195.097 188.533, 2182.075 191.087 M 2416 190.666 C 2388.614 194.979, 2367.614 205.440, 2349.027 224.027 C 2334.493 238.561, 2325.535 253.734, 2320.218 272.824 C 2317.750 281.687, 2317.523 284.013, 2317.523 300.500 C 2317.523 317.078, 2317.742 319.290, 2320.286 328.500 C 2328.491 358.192, 2350.619 384.433, 2379.616 398.855 C 2396.302 407.155, 2411.489 410.405, 2433.500 410.386 C 2471.676 410.353, 2499.645 400.231, 2521.606 378.500 C 2530.451 369.748, 2539 359.064, 2539 356.761 C 2539 356.340, 2527.581 350.291, 2513.625 343.319 L 2488.251 330.643 2480.675 337.250 C 2467.957 348.342, 2461.369 351.392, 2446.565 353.043 C 2434.380 354.402, 2424.729 353.013, 2415.270 348.538 C 2401.586 342.064, 2394.041 332.257, 2392.027 318.326 C 2391.484 314.572, 2391.031 311.163, 2391.020 310.750 C 2391.009 310.337, 2425.267 310, 2467.148 310 L 2543.296 310 2542.723 293.750 C 2542.037 274.302, 2538.704 259.338, 2532.001 245.618 C 2514.645 210.095, 2477.438 189.658, 2431 190.142 C 2424.125 190.214, 2417.375 190.450, 2416 190.666 M 1791.010 255.750 C 1791.016 288.613, 1791.487 320.811, 1792.056 327.302 C 1796.435 377.220, 1821.520 402.085, 1874.500 409.024 C 1887.614 410.742, 1924.173 410.460, 1937.074 408.542 C 1972.935 403.211, 1994.860 390.010, 2006.365 366.822 C 2012.653 354.149, 2015.787 341.203, 2016.950 323.097 C 2017.466 315.069, 2017.920 283.188, 2017.959 252.250 L 2018.031 196 1982.015 196 L 1946 196 1945.999 247.250 C 1945.998 303.242, 1945.278 315.850, 1941.378 328.198 C 1939.131 335.310, 1938.060 337.100, 1933.056 342.104 C 1928.166 346.994, 1926.237 348.174, 1920.073 350.046 C 1913.922 351.915, 1911.134 352.180, 1901.523 351.812 C 1891.267 351.420, 1889.603 351.079, 1883.663 348.155 C 1874.106 343.450, 1869.656 337.248, 1865.752 323.192 C 1863.703 315.812, 1863.601 313.077, 1863.238 255.750 L 1862.860 196 1826.930 196 L 1791 196 1791.010 255.750 M 2424.043 237.139 C 2408.413 239.730, 2396.791 250.490, 2394.220 264.750 L 2393.273 270 2433.216 270 L 2473.159 270 2472.497 266.750 C 2471.266 260.712, 2466.222 251.222, 2461.997 246.997 C 2456.872 241.872, 2449.639 238.449, 2441 237.060 C 2433.594 235.869, 2431.644 235.878, 2424.043 237.139 M 932.773 252.488 C 916.575 256.605, 903.773 268.579, 898.811 284.252 C 894.959 296.421, 896.412 314.046, 902.202 325.397 C 904.884 330.653, 913.425 339.579, 918.772 342.712 C 928.288 348.289, 944.173 350.690, 956.629 348.435 C 966.998 346.558, 979.402 338.132, 985.975 328.500 C 995.278 314.869, 996.490 293.659, 988.891 277.491 C 986.307 271.993, 978.367 263.027, 972.598 259.091 C 962.469 252.180, 945.230 249.321, 932.773 252.488 M 1371 252.746 C 1355.091 257.071, 1342.644 268.893, 1337.831 284.252 C 1334.028 296.387, 1335.487 314.195, 1341.202 325.397 C 1343.884 330.653, 1352.425 339.579, 1357.772 342.712 C 1367.839 348.612, 1384.720 350.864, 1397.465 348.008 C 1408.991 345.425, 1422.800 334.339, 1427.835 323.627 C 1434.652 309.125, 1434.658 291.351, 1427.850 277.214 C 1425.341 272.002, 1417.174 262.896, 1411.598 259.091 C 1401.064 251.903, 1383.945 249.228, 1371 252.746" stroke="none" fill="#192145" fill-rule="evenodd"/></svg>